REM DIRINDEX 1\2,1\3,1\4,1\5\6,1\5\7,1\8
REM DIRNAME folder01,folder02,folder03,folder04,folder05,folder06,folder07,folder08
TITLE ""
FILE "003 Åy003ÅzUnit1 (0025 renew_0036 regulation).mp3" MP3
  TRACK 01 AUDIO
    TITLE "0:"
    INDEX 01 00:00:00
  TRACK 02 AUDIO
    TITLE "2:cjc115_0074"
    INDEX 01 00:00:07
  TRACK 03 AUDIO
    TITLE "0:"
    INDEX 01 00:01:15
  TRACK 04 AUDIO
    TITLE "3:cjc115_0075"
    INDEX 01 00:01:26
  TRACK 05 AUDIO
    TITLE "0:"
    INDEX 01 00:02:63
  TRACK 06 AUDIO
    TITLE "4:cjc115_0076"
    INDEX 01 00:02:69
  TRACK 07 AUDIO
    TITLE "0:"
    INDEX 01 00:06:00
  TRACK 08 AUDIO
    TITLE "2:cjc115_0077"
    INDEX 01 00:07:03
  TRACK 09 AUDIO
    TITLE "0:"
    INDEX 01 00:08:13
  TRACK 10 AUDIO
    TITLE "3:cjc115_0078"
    INDEX 01 00:08:21
  TRACK 11 AUDIO
    TITLE "0:"
    INDEX 01 00:09:40
  TRACK 12 AUDIO
    TITLE "4:cjc115_0079"
    INDEX 01 00:09:45
  TRACK 13 AUDIO
    TITLE "0:"
    INDEX 01 00:13:18
  TRACK 14 AUDIO
    TITLE "2:cjc115_0080"
    INDEX 01 00:14:25
  TRACK 15 AUDIO
    TITLE "0:"
    INDEX 01 00:15:34
  TRACK 16 AUDIO
    TITLE "3:cjc115_0081"
    INDEX 01 00:15:44
  TRACK 17 AUDIO
    TITLE "0:"
    INDEX 01 00:17:70
  TRACK 18 AUDIO
    TITLE "4:cjc115_0082"
    INDEX 01 00:18:03
  TRACK 19 AUDIO
    TITLE "0:"
    INDEX 01 00:20:63
  TRACK 20 AUDIO
    TITLE "2:cjc115_0083"
    INDEX 01 00:21:70
  TRACK 21 AUDIO
    TITLE "0:"
    INDEX 01 00:22:72
  TRACK 22 AUDIO
    TITLE "3:cjc115_0084"
    INDEX 01 00:23:03
  TRACK 23 AUDIO
    TITLE "0:"
    INDEX 01 00:24:04
  TRACK 24 AUDIO
    TITLE "4:cjc115_0085"
    INDEX 01 00:24:14
  TRACK 25 AUDIO
    TITLE "0:"
    INDEX 01 00:27:73
  TRACK 26 AUDIO
    TITLE "2:cjc115_0086"
    INDEX 01 00:29:01
  TRACK 27 AUDIO
    TITLE "0:"
    INDEX 01 00:30:01
  TRACK 28 AUDIO
    TITLE "3:cjc115_0087"
    INDEX 01 00:30:10
  TRACK 29 AUDIO
    TITLE "0:"
    INDEX 01 00:32:33
  TRACK 30 AUDIO
    TITLE "4:cjc115_0088"
    INDEX 01 00:32:35
  TRACK 31 AUDIO
    TITLE "0:"
    INDEX 01 00:35:51
  TRACK 32 AUDIO
    TITLE "2:cjc115_0089"
    INDEX 01 00:36:58
  TRACK 33 AUDIO
    TITLE "0:"
    INDEX 01 00:37:73
  TRACK 34 AUDIO
    TITLE "3:cjc115_0090"
    INDEX 01 00:38:04
  TRACK 35 AUDIO
    TITLE "0:"
    INDEX 01 00:40:48
  TRACK 36 AUDIO
    TITLE "4:cjc115_0091"
    INDEX 01 00:40:54
  TRACK 37 AUDIO
    TITLE "0:"
    INDEX 01 00:45:41
  TRACK 38 AUDIO
    TITLE "2:cjc115_0092"
    INDEX 01 00:46:49
  TRACK 39 AUDIO
    TITLE "0:"
    INDEX 01 00:47:62
  TRACK 40 AUDIO
    TITLE "3:cjc115_0093"
    INDEX 01 00:47:68
  TRACK 41 AUDIO
    TITLE "0:"
    INDEX 01 00:50:31
  TRACK 42 AUDIO
    TITLE "4:cjc115_0094"
    INDEX 01 00:50:37
  TRACK 43 AUDIO
    TITLE "0:"
    INDEX 01 00:53:02
  TRACK 44 AUDIO
    TITLE "2:cjc115_0095"
    INDEX 01 00:54:13
  TRACK 45 AUDIO
    TITLE "0:"
    INDEX 01 00:55:61
  TRACK 46 AUDIO
    TITLE "3:cjc115_0096"
    INDEX 01 00:55:71
  TRACK 47 AUDIO
    TITLE "0:"
    INDEX 01 00:58:15
  TRACK 48 AUDIO
    TITLE "4:cjc115_0097"
    INDEX 01 00:58:26
  TRACK 49 AUDIO
    TITLE "0:"
    INDEX 01 01:03:04
  TRACK 50 AUDIO
    TITLE "2:cjc115_0098"
    INDEX 01 01:04:11
  TRACK 51 AUDIO
    TITLE "0:"
    INDEX 01 01:05:15
  TRACK 52 AUDIO
    TITLE "3:cjc115_0099"
    INDEX 01 01:05:26
  TRACK 53 AUDIO
    TITLE "0:"
    INDEX 01 01:07:06
  TRACK 54 AUDIO
    TITLE "4:cjc115_0100"
    INDEX 01 01:07:14
  TRACK 55 AUDIO
    TITLE "0:"
    INDEX 01 01:10:69
  TRACK 56 AUDIO
    TITLE "2:cjc115_0101"
    INDEX 01 01:12:01
  TRACK 57 AUDIO
    TITLE "0:"
    INDEX 01 01:13:22
  TRACK 58 AUDIO
    TITLE "3:cjc115_0102"
    INDEX 01 01:13:32
  TRACK 59 AUDIO
    TITLE "0:"
    INDEX 01 01:16:03
  TRACK 60 AUDIO
    TITLE "4:cjc115_0103"
    INDEX 01 01:16:09
  TRACK 61 AUDIO
    TITLE "0:"
    INDEX 01 01:20:04
  TRACK 62 AUDIO
    TITLE "2:cjc115_0104"
    INDEX 01 01:21:12
  TRACK 63 AUDIO
    TITLE "0:"
    INDEX 01 01:22:29
  TRACK 64 AUDIO
    TITLE "3:cjc115_0105"
    INDEX 01 01:22:35
  TRACK 65 AUDIO
    TITLE "0:"
    INDEX 01 01:23:56
  TRACK 66 AUDIO
    TITLE "4:cjc115_0106"
    INDEX 01 01:23:63
  TRACK 67 AUDIO
    TITLE "0:"
    INDEX 01 01:28:61
  TRACK 68 AUDIO
    TITLE "2:cjc115_0107"
    INDEX 01 01:29:68
  TRACK 69 AUDIO
    TITLE "0:"
    INDEX 01 01:31:28
  TRACK 70 AUDIO
    TITLE "3:cjc115_0108"
    INDEX 01 01:31:36
  TRACK 71 AUDIO
    TITLE "0:"
    INDEX 01 01:33:21
  TRACK 72 AUDIO
    TITLE "4:cjc115_0109"
    INDEX 01 01:33:33
  TRACK 73 AUDIO
    TITLE "0:"
    INDEX 01 01:38:57
